<svg width="125" height="125" viewBox="0 0 125 125" fill="none" xmlns="http://www.w3.org/2000/svg">
<path d="M121.229 96.199C125.326 96.3491 124.971 96.4114 124.989 100.253C124.997 102.128 125.011 104.007 124.982 105.882C124.96 107.409 124.521 107.833 122.998 107.837C119.432 107.852 115.866 107.841 112.629 107.841C111.48 110.137 110.433 112.232 109.375 114.352C109.481 114.359 109.858 114.418 110.235 114.418C114.398 114.425 118.564 114.418 122.727 114.425C124.557 114.429 124.978 114.85 124.986 116.699C124.997 118.805 125.008 120.911 124.982 123.016C124.96 124.533 124.514 124.946 122.987 124.994C122.668 125.005 122.346 124.998 122.028 124.998C82.3519 124.998 42.6762 124.998 3.00056 124.998C2.59051 124.998 2.17681 124.994 1.76676 124.994C0.573231 124.987 0.0130771 124.353 0.00941601 123.192C0.00575488 120.951 -0.0125472 118.706 0.0130807 116.465C0.0277252 114.905 0.510995 114.44 2.09627 114.432C6.16744 114.422 10.2423 114.429 14.3135 114.429C14.815 114.429 15.3129 114.429 15.6754 114.429C14.6064 112.319 13.5373 110.203 12.3438 107.852C9.24645 107.852 5.7757 107.855 2.30495 107.852C0.353564 107.848 0.0130792 107.504 0.00575689 105.515C-0.00156538 103.318 0.00209576 101.121 0.00575689 98.9236C0.00941802 96.6018 0.298646 96.3125 2.59051 96.2942C2.90903 96.2905 3.22755 96.2942 3.76574 96.2942C3.76574 95.7192 3.76574 95.1919 3.76574 94.6646C3.76574 79.9246 3.76574 65.1847 3.76574 50.4485C3.76574 48.3208 4.12453 47.9546 6.21137 47.9546C31.5647 47.9546 56.9144 47.9327 82.2677 47.962C100.998 47.9839 116.221 60.0908 120.267 78.2511C120.885 81.0343 121.054 83.942 121.2 86.802C121.35 89.8929 121.229 93.002 121.229 96.199ZM45.7333 87.9007C70.0029 87.9007 94.0859 87.9007 118.092 87.9007C118.092 86.0806 118.092 84.3668 118.092 82.5614C117.378 82.5614 116.832 82.5614 116.287 82.5614C107.317 82.5614 98.3511 82.543 89.3813 82.5687C86.5329 82.576 84.3656 81.3565 82.718 79.1263C81.3488 77.2733 80.6166 75.1676 80.5946 72.8641C80.5543 68.9274 80.569 64.9907 80.5616 61.0576C80.5616 60.5705 80.5616 60.0835 80.5616 59.5525C55.8746 59.5525 31.3743 59.5525 6.84841 59.5525C6.84841 69.0592 6.84841 78.4928 6.84841 87.93C11.9813 87.93 16.9971 87.93 22.1739 87.93C22.1739 87.3697 22.1739 86.8826 22.1739 86.3919C22.1739 79.8917 22.1702 73.3915 22.1776 66.8949C22.1812 65.2873 22.6425 64.7709 24.1656 64.7673C30.708 64.7526 37.2541 64.749 43.7965 64.7673C45.2573 64.7709 45.726 65.2873 45.7296 66.7997C45.7443 70.5973 45.7333 74.3986 45.7333 78.1961C45.7333 81.3968 45.7333 84.5938 45.7333 87.9007ZM117.484 79.6427C117.484 79.3131 117.499 79.1776 117.48 79.0494C117.444 78.7784 117.411 78.5038 117.345 78.2364C115.61 71.1063 112.051 65.0419 106.607 60.1201C106.164 59.7209 105.395 59.5122 104.776 59.5085C98.1461 59.4646 91.5121 59.4792 84.8818 59.4865C84.4424 59.4865 84.0031 59.5341 83.4503 59.5671C83.4503 61.1748 83.432 62.6762 83.4539 64.1777C83.5015 67.4223 83.3734 70.6852 83.6809 73.9078C84.0434 77.6944 86.4597 79.6427 90.2197 79.6427C98.7721 79.6463 107.325 79.6427 115.881 79.6427C116.371 79.6427 116.869 79.6427 117.484 79.6427ZM42.6689 96.2356C42.6689 86.6592 42.6689 77.222 42.6689 67.8031C36.7818 67.8031 31.0009 67.8031 25.2383 67.8031C25.2383 77.3356 25.2383 86.7728 25.2383 96.2356C31.0851 96.2356 36.8331 96.2356 42.6689 96.2356ZM118.209 90.9878C94.0602 90.9878 69.97 90.9878 45.8175 90.9878C45.8175 92.7603 45.8175 94.4668 45.8175 96.199C69.9883 96.199 94.0749 96.199 118.209 96.199C118.209 94.4338 118.209 92.7529 118.209 90.9878ZM90.0623 107.892C71.7786 107.892 53.2093 107.892 34.9439 107.892C33.8017 110.166 32.7326 112.287 31.7185 114.308C52.1842 114.308 72.8586 114.308 93.2511 114.308C92.2187 112.235 91.1789 110.141 90.0623 107.892ZM22.119 90.9951C16.9129 90.9951 11.8715 90.9951 6.83377 90.9951C6.83377 92.7969 6.83377 94.5034 6.83377 96.199C11.9813 96.199 17.0227 96.199 22.119 96.199C22.119 94.4412 22.119 92.7676 22.119 90.9951ZM31.389 107.951C26.1645 107.951 21.0353 107.951 15.8877 107.951C16.6822 111.99 20.0065 114.568 24.1106 114.414C27.7315 114.282 31.0192 111.382 31.389 107.951ZM93.6246 107.91C93.8186 111.221 97.2051 114.26 100.83 114.414C104.992 114.59 108.544 111.814 109.075 107.91C103.92 107.91 98.7721 107.91 93.6246 107.91Z" fill="white"/>
<path d="M84.1213 29.4424C84.546 28.8858 84.8791 28.4683 85.194 28.0399C89.5727 22.1182 93.9477 16.1966 98.3301 10.275C99.5969 8.5611 100.454 8.55744 101.676 10.2676C109.204 20.7999 116.731 31.3284 124.233 41.879C124.58 42.3697 124.888 43.0289 124.862 43.5965C124.848 43.992 124.236 44.6805 123.892 44.6805C123.31 44.6768 122.527 44.3912 122.186 43.9517C120.487 41.7398 118.946 39.407 117.247 37.1951C116.793 36.6019 116.046 36.0892 115.336 35.8658C112.722 35.0528 110.057 34.4009 107.424 33.6429C106.721 33.4415 106.253 33.5037 105.792 34.1336C105.118 35.0565 104.331 35.8914 103.602 36.774C102.969 37.5357 102.196 37.9166 101.351 37.2464C100.424 36.5103 100.699 35.6607 101.38 34.8624C102.42 33.6429 103.478 32.438 104.459 31.1746C105.129 30.314 105.909 30.1822 106.886 30.4568C109.076 31.0757 111.272 31.6653 113.861 32.3721C111.675 29.3069 109.705 26.5494 107.662 23.6856C106.011 24.44 104.408 25.1797 102.797 25.9048C101.358 26.5494 100.79 26.3223 100.109 24.8611C99.7836 24.158 99.4651 23.4549 99.0697 22.587C97.6894 23.2645 96.3604 23.92 95.0278 24.5755C94.6177 24.7769 94.2223 25.0296 93.7903 25.1651C90.1219 26.3187 87.7824 28.992 85.8676 32.1231C85.6443 32.4857 85.6516 33.0276 85.6663 33.4854C85.6736 33.7857 85.8859 34.0787 85.9994 34.379C86.3362 35.2762 86.3875 36.1771 85.366 36.5945C84.3153 37.023 83.6526 36.4554 83.2646 35.4483C81.7488 31.5262 80.2148 27.615 78.6808 23.7039C78.1353 22.3087 77.5752 20.9207 77.0296 19.5511C76.0228 20.5179 75.0343 21.4004 74.1447 22.3709C73.936 22.598 73.925 23.2095 74.0751 23.5171C74.5328 24.4583 75.1112 25.3445 75.6531 26.2454C76.1729 27.1097 76.1217 27.886 75.3272 28.5672C73.7969 29.8782 72.2738 31.1929 70.7508 32.5076C69.982 33.1705 69.1546 33.3243 68.4736 32.4783C67.7926 31.636 68.1477 30.8633 68.9056 30.2188C70.1577 29.1568 71.3988 28.0801 72.6729 26.9852C72.0761 25.9634 71.5782 24.982 70.9632 24.0848C70.1357 22.8836 70.3188 21.9315 71.3549 20.9537C72.585 19.7928 73.7163 18.5294 74.8879 17.3062C75.8581 16.2955 75.8544 16.2955 75.0929 14.8563C73.5442 15.4239 71.9736 15.9988 70.403 16.5775C68.3088 17.3465 68.2356 17.3245 66.9359 15.4715C66.8078 15.2884 66.6503 15.1236 66.4453 14.8746C62.3302 17.0023 58.2297 19.108 54.1512 21.2503C53.7229 21.4774 53.3897 21.8985 53.0383 22.2574C46.0162 29.3399 38.9942 36.4297 31.9758 43.5159C31.6865 43.8089 31.401 44.1092 31.0971 44.3838C30.4674 44.9588 29.7644 45.0394 29.1311 44.4571C28.4464 43.8345 28.4574 43.0655 29.0395 42.377C29.5704 41.7508 30.1708 41.1795 30.7603 40.6045C33.583 37.8616 36.4094 35.1297 39.32 32.3099C37.2661 29.5303 35.3806 26.9742 33.3926 24.2825C32.6933 25.1981 32.1039 25.9927 31.4925 26.7691C30.6102 27.8897 29.8157 28.0728 28.8711 27.0804C27.7838 25.9415 26.7147 25.751 25.3601 26.4468C24.8805 26.6959 24.3203 26.7874 23.8005 26.9632C22.8559 27.2855 22.1273 27.0547 21.5342 26.2234C20.5823 24.8904 19.5828 23.5977 18.4332 22.0633C18.2062 22.6236 17.9646 22.9642 17.9463 23.3121C17.8658 25.004 17.8108 26.6995 17.8438 28.3878C17.8511 28.7064 18.2355 29.1714 18.5541 29.2996C19.44 29.6585 20.3773 29.8892 21.2999 30.1456C22.3214 30.4312 22.8522 31.0245 22.7168 32.1414C22.4898 34.0494 22.3177 35.961 22.0797 37.869C21.9626 38.7955 21.4317 39.4473 20.4322 39.3155C19.4657 39.1873 19.052 38.4915 19.1545 37.5247C19.3192 35.983 19.5023 34.4412 19.6927 32.7603C18.7115 32.46 17.7669 32.167 16.8223 31.8777C15.0064 31.3174 14.8563 31.105 14.9002 29.1421C14.9112 28.6478 14.9002 28.1534 14.9002 27.2928C14.4426 27.8567 14.1644 28.1717 13.9227 28.5086C10.3531 33.4927 6.79083 38.4769 3.22489 43.461C3.01254 43.7576 2.81118 44.0726 2.55857 44.3326C1.9618 44.9515 1.16001 45.0943 0.629148 44.4644C0.274018 44.0433 0.274021 43.2559 0.277682 42.6334C0.281344 42.3294 0.654779 42.0291 0.867125 41.7325C8.31021 31.3101 15.7569 20.8914 23.2037 10.4691C24.6022 8.50983 25.3674 8.49884 26.7916 10.4251C31.3058 16.5298 35.8163 22.6382 40.3305 28.7466C40.6014 29.1128 40.887 29.4644 41.5606 30.3287C41.8645 29.7684 42.0182 29.2374 42.3624 28.8931C51.4933 19.6426 60.6424 10.4141 69.7879 1.18195C69.9161 1.05011 70.0405 0.918279 70.1723 0.790105C71.4354 -0.425715 72.4459 -0.246271 73.0903 1.38337C74.8915 5.92804 76.6562 10.4874 78.4319 15.0394C80.1123 19.3387 81.7891 23.6343 83.4696 27.9336C83.6343 28.3731 83.843 28.8089 84.1213 29.4424Z" fill="white"/>
<path d="M63.0438 82.0633C60.3017 82.0633 57.5595 82.0743 54.8209 82.0596C53.1734 82.0523 52.7378 81.6604 52.7341 80.071C52.7158 75.182 52.7158 70.2893 52.7341 65.4003C52.7378 63.8256 53.2174 63.3605 54.7917 63.3568C60.3676 63.3458 65.9398 63.3458 71.5157 63.3568C73.0241 63.3605 73.5074 63.8329 73.511 65.3051C73.522 70.2417 73.522 75.1784 73.511 80.1113C73.5074 81.6568 73.1083 82.0486 71.545 82.056C68.7113 82.0743 65.8776 82.0596 63.0438 82.0633Z" fill="white"/>
<path d="M105.598 75.1198C105.195 75.5592 104.91 76.1488 104.496 76.2587C104.016 76.3869 103.277 76.266 102.911 75.9511C101.739 74.944 100.685 73.7978 99.5899 72.6991C98.1072 71.216 96.6281 69.7291 95.1417 68.2496C94.4021 67.5136 94.0726 66.6896 94.9366 65.8839C95.7384 65.1369 96.5183 65.4848 97.2102 66.1769C99.7217 68.6964 102.248 71.2013 104.741 73.7355C105.067 74.0651 105.246 74.5448 105.598 75.1198Z" fill="white"/>
<path d="M108.387 68.8761C108.102 69.213 107.838 69.7879 107.413 69.9564C106.992 70.1212 106.231 70.0699 105.923 69.7843C104.246 68.2315 102.606 66.6275 101.094 64.9173C100.79 64.5767 100.856 63.4781 101.178 63.1339C101.508 62.7823 102.635 62.6322 102.95 62.9141C104.722 64.4925 106.359 66.221 108.021 67.9202C108.197 68.0997 108.219 68.422 108.387 68.8761Z" fill="white"/>
</svg>
