<svg width="125" height="125" viewBox="0 0 125 125" fill="none" xmlns="http://www.w3.org/2000/svg">
<path d="M5.25868 72.8873C5.25868 88.6017 5.25868 104.111 5.25868 119.715C13.9388 119.715 22.5517 119.715 31.2586 119.715C31.2586 119.094 31.2586 118.553 31.2586 118.012C31.2586 92.0333 31.2586 66.0576 31.2586 40.0784C31.2586 37.2344 32.0007 36.4789 34.8046 36.4789C53.2695 36.4789 71.7378 36.4789 90.2027 36.4789C93.0031 36.4789 93.7486 37.2377 93.7486 40.0818C93.7486 66.0609 93.7486 92.0367 93.7486 118.016C93.7486 118.556 93.7486 119.097 93.7486 119.722C102.429 119.722 111.011 119.722 119.705 119.722C119.705 104.168 119.705 88.6285 119.705 72.9511C119.255 72.9309 118.812 72.8906 118.368 72.8906C113.207 72.8873 108.043 72.8873 102.882 72.8873C102.546 72.8873 102.21 72.894 101.875 72.8839C100.071 72.8403 98.9801 71.8363 99.007 70.2581C99.0339 68.7337 100.108 67.7566 101.851 67.7465C105.209 67.7297 108.567 67.7398 111.925 67.7398C114.567 67.7398 117.213 67.7129 119.856 67.7499C122.777 67.7935 124.977 69.9324 124.98 72.847C125.007 88.5009 125.007 104.155 124.983 119.809C124.98 122.791 122.791 124.899 119.789 124.99C119.453 125 119.117 124.997 118.781 124.997C81.2607 124.997 43.7398 124.997 6.22238 124.99C5.47022 124.99 4.69455 125.007 3.96926 124.842C1.62882 124.312 0.0371916 122.29 0.0204022 119.806C-0.0131764 115.316 0.00697077 110.823 0.00697077 106.334C0.00697077 95.4213 0.00361291 84.5119 0.00697077 73.5991C0.00697077 69.7142 1.99819 67.7398 5.90339 67.7398C11.5278 67.7364 17.1522 67.7331 22.7733 67.7465C23.3106 67.7465 23.8814 67.7599 24.3817 67.9312C25.5268 68.3241 26.1715 69.553 25.97 70.7652C25.7551 72.0411 24.7511 72.8705 23.2501 72.8738C17.7936 72.894 12.3371 72.8839 6.88388 72.8839C6.38692 72.8873 5.88996 72.8873 5.25868 72.8873ZM49.4717 119.752C49.4717 119.147 49.4717 118.647 49.4717 118.15C49.4717 109.464 49.4717 100.78 49.4717 92.0938C49.4717 89.4143 50.328 88.5513 53.0076 88.548C59.3439 88.5412 65.6802 88.5412 72.0165 88.548C74.6927 88.5513 75.5523 89.4176 75.5523 92.0938C75.5556 100.821 75.5523 109.547 75.5523 118.278C75.5523 118.761 75.5523 119.245 75.5523 119.755C79.9679 119.755 84.1854 119.755 88.4834 119.755C88.4834 93.7256 88.4834 67.7734 88.4834 41.7405C71.1468 41.7405 53.884 41.7405 36.5473 41.7405C36.5473 67.77 36.5473 93.7223 36.5473 119.755C40.8319 119.752 45.0494 119.752 49.4717 119.752ZM54.7503 93.7794C54.7503 102.473 54.7503 111.062 54.7503 119.728C59.9248 119.728 65.0623 119.728 70.2133 119.728C70.2133 111.042 70.2133 102.429 70.2133 93.7794C65.0455 93.7794 59.9751 93.7794 54.7503 93.7794Z" fill="white"/>
<path d="M62.4059 0C64.5886 0.0235044 66.1668 0.980471 67.1573 2.83732C67.9263 4.27781 68.5576 5.79553 69.3668 7.20915C69.6287 7.66581 70.2231 8.10568 70.7368 8.21648C72.1673 8.52876 73.6313 8.66978 75.0853 8.86789C77.2981 9.16674 78.9703 10.2144 79.7057 12.3936C80.4511 14.603 79.8568 16.5136 78.2014 18.1219C77.1168 19.1729 75.9852 20.1802 74.9812 21.3051C74.6286 21.698 74.4003 22.4031 74.4573 22.9236C74.6319 24.5017 74.9912 26.0597 75.2464 27.6312C75.5856 29.713 74.9543 31.4691 73.2686 32.7451C71.5897 34.0143 69.7194 34.1923 67.8188 33.2756C66.3111 32.5503 64.827 31.7679 63.3663 30.9453C62.7451 30.5961 62.2582 30.6062 61.6437 30.9554C60.2972 31.7209 58.9104 32.416 57.5337 33.1278C55.576 34.1385 53.6352 34.1285 51.8488 32.8055C50.0322 31.459 49.3707 29.6055 49.8139 27.3659C49.9684 26.5869 49.9516 25.7508 50.2236 25.0188C51.0564 22.7825 50.4351 21.1137 48.5312 19.7471C47.7556 19.1931 47.1142 18.4376 46.4628 17.7291C43.6489 14.6869 45.0827 9.9726 49.1289 9.07608C50.8012 8.70672 52.517 8.52876 54.2195 8.30379C54.9481 8.20977 55.4115 7.91764 55.7271 7.21251C56.3954 5.72501 57.1307 4.26438 57.893 2.82053C58.8533 1.00062 60.3979 0.0671556 62.4059 0ZM50.4519 14.1127C52.0436 15.7715 53.4975 17.3295 55.0086 18.8338C55.8816 19.7034 56.2543 20.647 56.0226 21.8894C55.6197 24.0451 55.2973 26.2175 54.9078 28.5848C56.8923 27.5573 58.7123 26.7044 60.4382 25.6904C61.862 24.8509 63.1279 24.8408 64.555 25.6803C66.2944 26.7011 68.1244 27.5707 70.082 28.5915C69.7026 26.2511 69.4272 24.1357 68.9907 22.0505C68.6952 20.6369 69.1754 19.6497 70.1425 18.6894C71.6233 17.2254 73.0168 15.6741 74.4976 14.1094C73.1142 13.8945 71.677 13.4748 70.2466 13.4848C67.2111 13.505 65.4515 12.0712 64.4945 9.27754C64.0345 7.93779 63.2588 6.70884 62.5201 5.22135C61.4254 7.40726 60.445 9.29769 59.5283 11.2217C58.9708 12.3868 58.1415 13.0181 56.8352 13.1726C54.7198 13.4244 52.6178 13.787 50.4519 14.1127Z" fill="white"/>
<path d="M18.1563 28.9205C18.3007 28.0441 18.5626 26.8085 18.6734 25.5627C18.7137 25.1061 18.5088 24.5218 18.21 24.1659C17.5384 23.3668 16.7124 22.7019 15.9938 21.9363C14.7749 20.6369 14.3753 19.0957 14.9495 17.4033C15.517 15.7278 16.7057 14.4586 18.4853 14.4283C21.494 14.378 23.2737 13.0953 24.2676 10.2479C24.8451 8.59253 26.3763 7.81688 28.1829 7.80681C29.9827 7.80009 31.5844 8.5388 32.1284 10.1908C33.1055 13.1591 35.0497 14.1463 38.0046 14.4586C41.4632 14.8246 42.8399 19.0486 40.57 21.7248C39.8414 22.5844 38.918 23.2828 38.2027 24.1525C37.8871 24.5353 37.7024 25.1632 37.7326 25.6635C37.7897 26.6607 38.0583 27.6446 38.2027 28.6385C38.4546 30.3576 37.8938 31.8048 36.5372 32.8659C35.137 33.9605 33.5454 34.1452 31.9168 33.4334C30.8826 32.9834 29.9256 32.3522 28.888 31.9089C28.5019 31.7444 27.9243 31.7478 27.5348 31.9123C26.4603 32.3723 25.4731 33.0372 24.3918 33.4837C21.3597 34.7496 18.1328 32.5469 18.1563 28.9205ZM32.9779 27.9703C31.2385 24.3002 32.3298 21.52 35.6138 19.4751C33.7502 19.0016 31.9135 18.9882 30.7147 18.1051C29.5193 17.2254 28.9686 15.476 28.0956 14.0489C27.6422 14.9589 27.1587 15.795 26.7961 16.6814C26.242 18.0312 25.285 18.7263 23.8411 18.8573C22.8774 18.9446 21.9238 19.136 20.9399 19.2837C22.0615 20.6302 23.5154 21.7013 23.9553 23.0948C24.4053 24.5218 23.8613 26.2612 23.7572 27.7856C25.2246 27.198 26.7255 26.1201 28.2164 26.1302C29.7107 26.1369 31.1982 27.2316 32.9779 27.9703Z" fill="white"/>
<path d="M96.8778 7.78668C98.5937 7.82026 100.158 8.53547 100.696 10.1338C101.7 13.1289 103.654 14.153 106.673 14.4687C110.074 14.8212 111.421 19.0084 109.231 21.6644C108.939 22.0203 108.64 22.4031 108.261 22.6448C106.236 23.9242 106.038 25.6904 106.649 27.8259C107.23 29.8506 106.763 31.6773 104.99 32.97C103.261 34.2292 101.344 34.209 99.7119 32.9834C97.5293 31.3449 95.7328 31.9257 93.6207 33.1513C90.4945 34.9645 86.8277 32.923 86.7874 29.4779C86.774 28.2792 87.0158 27.0536 87.3012 25.8817C87.5127 25.0121 87.271 24.4681 86.6397 23.9208C85.9412 23.3198 85.2999 22.6516 84.6619 21.9867C83.4229 20.6973 83.0367 19.1528 83.5572 17.4604C84.0944 15.7077 85.3268 14.4519 87.1568 14.4015C90.1621 14.3209 91.925 13.0215 92.9055 10.1673C93.4662 8.50525 95.0511 7.79004 96.8778 7.78668ZM97.0189 13.8844C96.9181 13.9448 96.8174 14.0053 96.7166 14.0624C96.2768 14.9488 95.8 15.8218 95.4104 16.7318C94.8631 18.0111 93.9431 18.7062 92.5529 18.8438C91.5758 18.9412 90.6087 19.1259 89.1044 19.3509C92.7879 21.5133 93.6073 24.3775 92.1802 28.1147C95.266 25.5325 98.2344 25.5124 101.216 28.1348C101.095 26.1974 100.551 24.4446 101.018 23.0243C101.478 21.6241 102.962 20.5597 104.242 19.0621C100.152 19.5154 97.855 17.7056 97.0189 13.8844Z" fill="white"/>
<path d="M106.746 93.7323C105.111 93.7323 103.472 93.7525 101.837 93.7256C100.017 93.6987 99.0132 92.725 99.0031 90.9252C98.9796 87.5674 98.9763 84.2097 99.0065 80.8519C99.0199 79.2032 100.027 78.1523 101.666 78.1321C105.064 78.0918 108.466 78.0952 111.864 78.1287C113.566 78.1455 114.587 79.2032 114.597 80.9191C114.621 84.2332 114.627 87.5507 114.594 90.8648C114.574 92.7183 113.533 93.6853 111.659 93.729C111.619 93.729 111.575 93.729 111.535 93.729C109.936 93.7323 108.341 93.7323 106.746 93.7323ZM104.241 88.4237C106.001 88.4237 107.643 88.4237 109.272 88.4237C109.272 86.681 109.272 85.0357 109.272 83.4072C107.549 83.4072 105.93 83.4072 104.241 83.4072C104.241 85.086 104.241 86.6978 104.241 88.4237Z" fill="white"/>
<path d="M26.0103 85.9625C26.0103 87.5978 26.0271 89.2363 26.0069 90.8716C25.9834 92.6881 25.0096 93.7089 23.2233 93.7257C19.8654 93.7526 16.5109 93.7559 13.153 93.7223C11.511 93.7055 10.4432 92.6949 10.4197 91.0596C10.3727 87.6213 10.3693 84.1795 10.4231 80.7378C10.4499 79.1731 11.5211 78.1557 13.0926 78.1355C16.5344 78.0986 19.9728 78.0919 23.4147 78.1389C24.9761 78.159 25.9666 79.2234 26.0002 80.8016C26.0338 82.5208 26.0069 84.2433 26.0103 85.9625ZM20.7451 88.4473C20.7451 86.7281 20.7451 85.0861 20.7451 83.4341C19.0058 83.4341 17.3604 83.4341 15.7386 83.4341C15.7386 85.1734 15.7386 86.8187 15.7386 88.4473C17.4578 88.4473 19.0763 88.4473 20.7451 88.4473Z" fill="white"/>
<path d="M26.01 106.764C26.01 108.443 26.0302 110.122 26.0033 111.801C25.9764 113.52 24.9859 114.561 23.2666 114.581C19.9088 114.621 16.5543 114.621 13.1964 114.581C11.4872 114.561 10.4362 113.52 10.4161 111.821C10.3758 108.463 10.3758 105.105 10.4161 101.751C10.4362 100.021 11.4637 99.0108 13.1796 98.994C16.5375 98.9638 19.892 98.9638 23.2499 98.9906C25.0027 99.0041 25.9529 99.9912 26.01 101.727C26.0134 101.811 26.0134 101.895 26.0134 101.979C26.01 103.577 26.01 105.169 26.01 106.764ZM15.698 104.225C15.698 105.998 15.698 107.617 15.698 109.296C17.4105 109.296 19.0592 109.296 20.7382 109.296C20.7382 107.57 20.7382 105.921 20.7382 104.225C19.0189 104.225 17.4038 104.225 15.698 104.225Z" fill="white"/>
<path d="M98.9933 106.818C98.9933 105.182 98.9799 103.544 98.9967 101.909C99.0168 99.9879 99.9469 99.0074 101.834 98.994C105.148 98.9671 108.466 98.9671 111.78 98.9973C113.583 99.0141 114.577 100.008 114.594 101.825C114.624 105.139 114.628 108.456 114.591 111.77C114.57 113.543 113.519 114.571 111.733 114.587C108.419 114.618 105.101 114.621 101.787 114.587C100.001 114.567 99.0202 113.53 98.9967 111.73C98.9799 110.088 98.9967 108.453 98.9933 106.818ZM109.315 104.269C107.549 104.269 105.904 104.269 104.238 104.269C104.238 105.998 104.238 107.62 104.238 109.292C105.961 109.292 107.61 109.292 109.315 109.292C109.315 107.6 109.315 105.978 109.315 104.269Z" fill="white"/>
<path d="M57.2617 54.6847C57.2617 56.3636 57.2886 58.0425 57.255 59.7181C57.2214 61.4473 56.2342 62.458 54.5015 62.4748C51.1437 62.5084 47.7892 62.5084 44.4313 62.4748C42.7792 62.458 41.7114 61.4641 41.6812 59.8188C41.6208 56.3804 41.6208 52.9387 41.6846 49.497C41.7148 47.855 42.7927 46.8947 44.4582 46.8813C47.816 46.8578 51.1705 46.8544 54.5284 46.8813C56.2577 46.8947 57.2248 47.892 57.2584 49.6481C57.2886 51.3303 57.2617 53.0092 57.2617 54.6847ZM46.9631 52.1631C46.9631 53.8722 46.9631 55.5175 46.9631 57.1628C48.6958 57.1628 50.3445 57.1628 52.0335 57.1628C52.0335 55.4604 52.0335 53.8487 52.0335 52.1631C50.3109 52.1631 48.6622 52.1631 46.9631 52.1631Z" fill="white"/>
<path d="M67.7451 54.6176C67.7451 52.9387 67.7182 51.2598 67.7518 49.5843C67.7888 47.9088 68.7592 46.9048 70.4213 46.888C73.8195 46.8544 77.2176 46.8578 80.6158 46.888C82.2141 46.9014 83.2853 47.8551 83.3155 49.4399C83.3827 52.9219 83.3827 56.404 83.3155 59.886C83.2853 61.4675 82.2141 62.4547 80.6326 62.4748C77.2344 62.5151 73.8363 62.5151 70.4381 62.4748C68.7793 62.4547 67.7888 61.4306 67.7518 59.7819C67.7149 58.0593 67.7451 56.3402 67.7451 54.6176ZM78.0571 57.2065C78.0571 55.447 78.0571 53.8353 78.0571 52.1664C76.3379 52.1664 74.6892 52.1664 73.0002 52.1664C73.0002 53.8856 73.0002 55.5276 73.0002 57.2065C74.7227 57.2065 76.3446 57.2065 78.0571 57.2065Z" fill="white"/>
<path d="M49.5285 67.7431C51.2075 67.7431 52.8864 67.7196 54.562 67.7499C56.2678 67.7801 57.2315 68.7035 57.2483 70.4025C57.2852 73.8006 57.2818 77.1987 57.2516 80.5967C57.2382 82.2555 56.2577 83.2897 54.5922 83.3165C51.194 83.3703 47.7959 83.3669 44.3977 83.3199C42.7389 83.2964 41.7047 82.2857 41.6778 80.6337C41.6208 77.2356 41.6241 73.8375 41.6745 70.4394C41.7013 68.7135 42.749 67.7902 44.4917 67.7431C44.5757 67.7398 44.6596 67.7431 44.7436 67.7431C46.3386 67.7398 47.9335 67.7398 49.5285 67.7431ZM51.9966 78.0683C51.9966 76.2685 51.9966 74.6199 51.9966 72.9947C50.2337 72.9947 48.5883 72.9947 46.9765 72.9947C46.9765 74.7575 46.9765 76.4129 46.9765 78.0683C48.6958 78.0683 50.321 78.0683 51.9966 78.0683Z" fill="white"/>
<path d="M75.5789 67.7431C77.2142 67.7431 78.8528 67.7264 80.4881 67.7465C82.2577 67.77 83.302 68.6833 83.3289 70.4059C83.3859 73.8039 83.3859 77.202 83.3289 80.6001C83.302 82.3125 82.251 83.3031 80.5116 83.3232C77.1974 83.3635 73.8832 83.3602 70.569 83.3232C68.7423 83.3031 67.7651 82.3058 67.7517 80.4993C67.7249 77.1852 67.7249 73.8711 67.7517 70.557C67.7651 68.7035 68.7053 67.7734 70.5455 67.7465C72.221 67.723 73.9 67.7431 75.5789 67.7431ZM72.9665 78.0549C74.6891 78.0549 76.3445 78.0549 78.0604 78.0549C78.0604 76.3458 78.0604 74.6904 78.0604 73.0081C76.3243 73.0081 74.6454 73.0081 72.9665 73.0081C72.9665 74.7508 72.9665 76.3693 72.9665 78.0549Z" fill="white"/>
</svg>
